<svg width="75" height="50" viewBox="0 0 75 50" fill="none" xmlns="http://www.w3.org/2000/svg">
<g clip-path="url(#clip0_62_257)">
<path fill-rule="evenodd" clip-rule="evenodd" d="M58.8673 21.5532L38.7157 1.40158C37.5715 0.257416 35.7027 0.257416 34.5585 1.40158L27.6602 8.29994C26.516 9.44411 26.516 11.3129 27.6602 12.4571L47.8118 32.6087C48.956 33.7528 50.8248 33.7528 51.9689 32.6087L58.8673 25.7103C60.0115 24.5662 60.0115 22.6973 58.8673 21.5532Z" fill="#E30016"/>
<path fill-rule="evenodd" clip-rule="evenodd" d="M15.1697 21.0526L34.3202 1.90217C35.7408 0.481502 38.0578 0.481502 39.4785 1.90217L45.3804 7.80416C46.8011 9.22483 46.8011 11.5418 45.3804 12.9624L26.23 32.1129C24.8141 33.5336 22.4924 33.5336 21.0717 32.1129L15.1697 26.2109C13.7538 24.7902 13.7538 22.4733 15.1697 21.0526Z" fill="#E30016"/>
<mask id="mask0_62_257" style="mask-type:luminance" maskUnits="userSpaceOnUse" x="0" y="0" width="75" height="50">
<path d="M74.8284 0H0V50H74.8284V0Z" fill="white"/>
</mask>
<g mask="url(#mask0_62_257)">
<path fill-rule="evenodd" clip-rule="evenodd" d="M11.9089 39.1592L9.58238 48.2172H8.18078L6.6886 42.1817L5.0963 48.2172H3.6661L1.43974 39.1592H2.99867L4.40027 45.0659L6.0021 39.1592H7.3751L8.85774 45.0659L10.3499 39.1592H11.8993H11.9089ZM15.9706 48.2172H14.5118V39.1592H15.9706V48.2172ZM21.0955 40.5942L20.7761 40.8945H19.7464L19.4651 40.5942V39.4738L19.7464 39.1592H20.7761L21.0955 39.4595V40.5942ZM21.0145 48.2172H19.5509V41.6906H21.0145V48.2172ZM29.3192 48.2172H27.8795V44.0553C27.8795 43.712 27.8127 43.4069 27.6793 43.1542C27.5458 42.8825 27.3455 42.7442 27.0929 42.7442C26.4636 42.7442 25.7532 43.1638 24.9714 43.9885V48.2172H23.5317V41.6763H24.9714V42.3914C25.7056 41.7955 26.4445 41.5 27.2025 41.5C27.9605 41.5 28.4802 41.7669 28.8425 42.2913C29.1619 42.749 29.324 43.3401 29.324 44.0696V48.2172H29.3192ZM36.8469 48.2172H35.4071V44.0553C35.4071 43.712 35.3404 43.4069 35.2069 43.1542C35.0734 42.8825 34.878 42.7442 34.6205 42.7442C33.9912 42.7442 33.2809 43.1638 32.4991 43.9885V48.2172H31.0593V41.6763H32.4991V42.3914C33.2332 41.7955 33.9722 41.5 34.7302 41.5C35.4882 41.5 36.0078 41.7669 36.3749 42.2913C36.6943 42.749 36.8564 43.3401 36.8564 44.0696V48.2172H36.8469ZM45.0181 41.6906L43.0301 46.3293C42.5582 47.4162 42.1386 48.1552 41.7763 48.5461C41.2138 49.1611 40.4462 49.4805 39.4689 49.5186L38.5202 49.5472V48.0551L39.4689 48.0408C39.8169 48.0312 40.0982 47.9645 40.3127 47.8358C40.5273 47.707 40.737 47.483 40.9516 47.1636L38.3105 41.6906H40.0219L41.7382 45.5093L43.3162 41.6906H45.0277H45.0181ZM48.5269 47.9979L48.217 48.3363H47.0013L46.6676 48.0074V46.8823L47.0013 46.5581H48.217L48.5269 46.8823V47.9931V47.9979ZM56.312 46.0242C55.7494 47.6308 54.8198 48.4317 53.5231 48.4317C52.4933 48.4317 51.6924 48.0789 51.1203 47.3638C50.5864 46.7059 50.3194 45.8573 50.3194 44.8085C50.3194 43.7597 50.615 42.9874 51.2014 42.3867C51.783 41.7908 52.5553 41.4952 53.5231 41.4952C54.734 41.4952 55.6541 42.2341 56.2834 43.712H54.6672C54.3097 43.0922 53.9283 42.7824 53.5183 42.7824C52.9033 42.7824 52.4695 42.954 52.2264 43.302C51.988 43.6119 51.8688 44.1172 51.8688 44.8085C51.8688 46.3579 52.4218 47.135 53.5231 47.135C54.0141 47.135 54.405 46.7679 54.6959 46.0242H56.312ZM63.7061 44.9467C63.7061 45.8954 63.463 46.6964 62.972 47.3543C62.419 48.0741 61.6753 48.4317 60.7456 48.4317C59.816 48.4317 59.0675 48.0741 58.5145 47.3543C58.0092 46.6964 57.7565 45.8954 57.7565 44.9467C57.7565 43.998 58.0139 43.2019 58.5288 42.5535C59.0818 41.848 59.816 41.5 60.7456 41.5C61.6753 41.5 62.3761 41.8575 62.9434 42.5678C63.4535 43.2162 63.7061 44.0076 63.7061 44.9467ZM62.1568 44.9467C62.1568 44.3508 62.0519 43.855 61.8373 43.4546C61.5799 42.9874 61.2176 42.7585 60.7456 42.7585C59.7826 42.7585 59.3011 43.4879 59.3011 44.9467C59.3011 45.557 59.4108 46.0623 59.6253 46.4532C59.8637 46.9252 60.2355 47.1636 60.7456 47.1636C61.2271 47.1636 61.5942 46.9204 61.8517 46.4389C62.0566 46.048 62.1615 45.5474 62.1615 44.9467H62.1568ZM74.6377 48.2172H73.1979V44.3318C73.1979 43.8169 73.1503 43.4641 73.0502 43.2639C72.9262 42.9778 72.6878 42.8396 72.3303 42.8396C71.7534 42.8396 71.1575 43.2257 70.5521 44.0028C70.5616 44.0839 70.5664 44.1935 70.5664 44.3318V48.2172H69.1123V44.1792C69.1123 43.2829 68.874 42.8396 68.3925 42.8396C67.849 42.8396 67.3007 43.2353 66.7382 44.0314V48.2219H65.2984V41.6668H66.7382V42.3199C67.3532 41.7765 67.9634 41.5 68.5688 41.5C69.3555 41.5 69.9085 41.8575 70.2374 42.5678C70.9573 41.8575 71.7105 41.5 72.4924 41.5C73.1884 41.5 73.7271 41.7479 74.118 42.2532C74.4661 42.6966 74.6377 43.2734 74.6377 43.9647V48.2219V48.2172Z" fill="#E30016"/>
<path fill-rule="evenodd" clip-rule="evenodd" d="M1.08219 7.35611L7.26545 1.17762C8.70996 -0.266889 11.0746 -0.266889 12.5191 1.17762L18.6976 7.35611C20.1421 8.80062 20.1421 11.1652 18.6976 12.6097L12.5191 18.793C11.0746 20.2375 8.70996 20.2375 7.26545 18.793L1.08219 12.6097C-0.362317 11.1652 -0.362317 8.80062 1.08219 7.35611Z" fill="#009EE0"/>
</g>
<path fill-rule="evenodd" clip-rule="evenodd" d="M41.4474 21.0526L60.5978 1.90217C62.0185 0.481502 64.3354 0.481502 65.7561 1.90217L71.6581 7.80416C73.0788 9.22483 73.0788 11.5418 71.6581 12.9624L52.5076 32.1129C51.087 33.5336 48.77 33.5336 47.3494 32.1129L41.4474 26.2109C40.0267 24.7902 40.0267 22.4733 41.4474 21.0526Z" fill="#E30016"/>
</g>
<defs>
<clipPath id="clip0_62_257">
<rect width="74.8284" height="50" fill="white"/>
</clipPath>
</defs>
</svg>
